<svg width="42" height="42" viewBox="0 0 42 42" fill="none" xmlns="http://www.w3.org/2000/svg">
<rect x="42" y="42" width="42" height="42" rx="21" transform="rotate(180 42 42)" fill="black"/>
<path d="M19.6679 13.9361L11.406 22.3222C11.2519 22.4786 11.1297 22.6643 11.0463 22.8686C10.9629 23.0729 10.92 23.2919 10.92 23.5131C10.92 23.9597 11.0948 24.3881 11.406 24.7039C11.56 24.8603 11.7429 24.9843 11.9442 25.0689C12.1455 25.1536 12.3613 25.1971 12.5792 25.1971C13.0192 25.1971 13.4412 25.0197 13.7524 24.7039L20.8411 17.4918L27.9298 24.7039C28.0835 24.8611 28.2662 24.9859 28.4676 25.071C28.6689 25.1562 28.8849 25.2 29.103 25.2C29.3212 25.2 29.5372 25.1562 29.7385 25.071C29.9399 24.9859 30.1226 24.8611 30.2762 24.7039C30.4311 24.548 30.554 24.3625 30.6379 24.1581C30.7218 23.9537 30.765 23.7345 30.765 23.513C30.765 23.2916 30.7218 23.0724 30.6379 22.868C30.554 22.6636 30.4311 22.4781 30.2762 22.3222L22.0143 13.9361C21.8607 13.7789 21.6779 13.6541 21.4766 13.569C21.2752 13.4838 21.0592 13.44 20.8411 13.44C20.623 13.44 20.407 13.4838 20.2056 13.569C20.0043 13.6541 19.8215 13.7789 19.6679 13.9361Z" fill="#FCFCFC"/>
</svg>
