<svg width="42" height="42" viewBox="0 0 42 42" fill="none" xmlns="http://www.w3.org/2000/svg">
<rect width="42" height="42" rx="21" fill="black"/>
<path d="M22.3321 28.0639L30.594 19.6778C30.7481 19.5214 30.8703 19.3357 30.9537 19.1314C31.0371 18.9271 31.08 18.7081 31.08 18.4869C31.08 18.0403 30.9052 17.6119 30.594 17.2961C30.44 17.1397 30.2571 17.0157 30.0558 16.9311C29.8545 16.8464 29.6387 16.8029 29.4208 16.8029C28.9808 16.8029 28.5588 16.9803 28.2476 17.2961L21.1589 24.5082L14.0702 17.2961C13.9165 17.1389 13.7338 17.0141 13.5324 16.929C13.3311 16.8438 13.1151 16.8 12.897 16.8C12.6788 16.8 12.4628 16.8438 12.2615 16.929C12.0601 17.0141 11.8774 17.1389 11.7238 17.2961C11.5689 17.452 11.446 17.6375 11.3621 17.8419C11.2782 18.0463 11.235 18.2655 11.235 18.4869C11.235 18.7084 11.2782 18.9276 11.3621 19.132C11.446 19.3364 11.5689 19.5219 11.7238 19.6778L19.9857 28.0639C20.1393 28.2211 20.3221 28.3459 20.5234 28.431C20.7248 28.5162 20.9408 28.56 21.1589 28.56C21.377 28.56 21.593 28.5162 21.7944 28.431C21.9957 28.3459 22.1785 28.2211 22.3321 28.0639Z" fill="#FCFCFC"/>
</svg>
