<svg width="21" height="21" viewBox="0 0 21 21" fill="none" xmlns="http://www.w3.org/2000/svg">
<path fill-rule="evenodd" clip-rule="evenodd" d="M0 16.7093C0 18.6845 -5.96046e-08 19.671 0.613716 20.2848C1.22743 20.8985 2.21399 20.8985 4.18919 20.8985H16.7568C18.732 20.8985 19.7185 20.8985 20.3322 20.2848C20.9459 19.671 20.9459 18.6845 20.9459 16.7093V11.4728C20.9459 10.9795 20.9459 10.7324 20.793 10.5784C20.6391 10.4255 20.3909 10.4255 19.8986 10.4255H1.0473C0.55402 10.4255 0.306858 10.4255 0.152905 10.5784C-8.9407e-08 10.7324 0 10.9806 0 11.4728V16.7093ZM5.23649 13.5674C5.23649 13.0741 5.23649 12.827 5.38939 12.673C5.54334 12.5201 5.79155 12.5201 6.28378 12.5201H8.37838C8.87165 12.5201 9.11882 12.5201 9.27277 12.673C9.42568 12.827 9.42568 13.0741 9.42568 13.5674C9.42568 14.0607 9.42568 14.3078 9.27277 14.4618C9.11882 14.6147 8.87061 14.6147 8.37838 14.6147H6.28378C5.79051 14.6147 5.54334 14.6147 5.38939 14.4618C5.23649 14.3078 5.23649 14.0596 5.23649 13.5674ZM5.38939 16.8622C5.23649 17.0161 5.23649 17.2644 5.23649 17.7566C5.23649 18.2488 5.23649 18.497 5.38939 18.651C5.54334 18.8039 5.79155 18.8039 6.28378 18.8039H8.37838C8.87165 18.8039 9.11882 18.8039 9.27277 18.651C9.42568 18.497 9.42568 18.2488 9.42568 17.7566C9.42568 17.2644 9.42568 17.0161 9.27277 16.8622C9.11882 16.7093 8.87061 16.7093 8.37838 16.7093H6.28378C5.79051 16.7093 5.54334 16.7093 5.38939 16.8622ZM11.5203 13.5674C11.5203 13.0741 11.5203 12.827 11.6732 12.673C11.8271 12.5201 12.0753 12.5201 12.5676 12.5201H14.6622C15.1554 12.5201 15.4026 12.5201 15.5566 12.673C15.7095 12.827 15.7095 13.0741 15.7095 13.5674C15.7095 14.0607 15.7095 14.3078 15.5566 14.4618C15.4026 14.6147 15.1544 14.6147 14.6622 14.6147H12.5676C12.0743 14.6147 11.8271 14.6147 11.6732 14.4618C11.5203 14.3078 11.5203 14.0596 11.5203 13.5674ZM11.6732 16.8622C11.5203 17.0161 11.5203 17.2644 11.5203 17.7566C11.5203 18.2488 11.5203 18.497 11.6732 18.651C11.8271 18.8039 12.0743 18.8039 12.5676 18.8039H14.6622C15.1554 18.8039 15.4026 18.8039 15.5566 18.651C15.7095 18.497 15.7095 18.2488 15.7095 17.7566C15.7095 17.2644 15.7095 17.0161 15.5566 16.8622C15.4026 16.7093 15.1544 16.7093 14.6622 16.7093H12.5676C12.0743 16.7093 11.8271 16.7093 11.6732 16.8622Z" fill="#0B0B0B"/>
<path d="M5.23682 1V4.14189ZM15.7098 1V4.14189Z" fill="#0B0B0B"/>
<path fill-rule="evenodd" clip-rule="evenodd" d="M6.23657 1C6.23657 0.447715 5.78886 0 5.23657 0C4.68429 0 4.23657 0.447715 4.23657 1V3.0957H4.18919C2.21399 3.0957 1.22743 3.0957 0.613716 3.70942C0 4.32314 0 5.30969 0 7.28489C0 7.77712 0 8.02533 0.152905 8.17928C0.306858 8.33219 0.55402 8.33219 1.0473 8.33219H19.8986C20.3909 8.33219 20.6391 8.33219 20.793 8.17928C20.9459 8.02533 20.9459 7.77817 20.9459 7.28489C20.9459 5.30969 20.9459 4.32314 20.3322 3.70942C19.7185 3.0957 18.732 3.0957 16.7568 3.0957H16.7095V1C16.7095 0.447715 16.2618 0 15.7095 0C15.1573 0 14.7095 0.447715 14.7095 1V3.0957H6.23657V1Z" fill="#0B0B0B"/>
</svg>
