<svg width="21" height="22" viewBox="0 0 21 22" fill="none" xmlns="http://www.w3.org/2000/svg">
<path d="M20.3124 1.59653C20.0932 1.37476 19.832 1.19883 19.5441 1.07898C19.2562 0.95914 18.9473 0.897778 18.6354 0.898474H12.1341C11.7076 0.899269 11.2987 1.0682 10.996 1.36861L0.692543 11.6697C0.249065 12.1141 -1.61396e-06 12.7162 -1.61396e-06 13.344C-1.61396e-06 13.9718 0.249065 14.5739 0.692543 15.0183L6.88023 21.2057C7.32473 21.6493 7.92711 21.8985 8.55514 21.8985C9.18317 21.8985 9.78554 21.6493 10.23 21.2057L20.5282 10.9098C20.8292 10.6076 20.9988 10.1988 21 9.77229V3.26765C21.0019 2.95743 20.9421 2.64993 20.8241 2.36304C20.706 2.07614 20.5321 1.81559 20.3124 1.59653ZM15.9229 7.66754C15.5882 7.66754 15.261 7.56829 14.9827 7.38234C14.7043 7.19639 14.4874 6.93209 14.3593 6.62287C14.2312 6.31365 14.1977 5.97339 14.263 5.64513C14.3283 5.31686 14.4895 5.01532 14.7262 4.77866C14.9629 4.54199 15.2644 4.38082 15.5927 4.31552C15.921 4.25022 16.2613 4.28374 16.5705 4.41182C16.8798 4.5399 17.1441 4.75681 17.33 5.0351C17.516 5.31339 17.6152 5.64057 17.6152 5.97527C17.6152 6.42409 17.4369 6.85452 17.1196 7.17188C16.8022 7.48924 16.3717 7.66754 15.9229 7.66754Z" fill="#0B0B0B"/>
</svg>
