<svg width="21" height="30" viewBox="0 0 21 30" fill="none" xmlns="http://www.w3.org/2000/svg">
<path fill-rule="evenodd" clip-rule="evenodd" d="M13.5316 1.44576C13.158 0.992564 12.6933 0.628552 12.1699 0.378921C11.6464 0.12929 11.0767 0 10.5 0C9.92334 0 9.35357 0.12929 8.83012 0.378921C8.30667 0.628552 7.84204 0.992564 7.46838 1.44576L7.41266 1.51421C7.27633 1.67924 7.10395 1.80848 6.90973 1.89131C6.71551 1.97414 6.505 2.00817 6.29554 1.99061L6.2093 1.98377C5.63472 1.93625 5.057 2.01808 4.51609 2.22358C3.97517 2.42908 3.48396 2.75335 3.07644 3.17398C2.66891 3.59461 2.35479 4.10155 2.1558 4.65974C1.9568 5.21794 1.87768 5.81407 1.92391 6.40692L1.92921 6.4959C1.94623 6.71203 1.91324 6.92925 1.83297 7.12965C1.7527 7.33005 1.62744 7.50791 1.46751 7.64858L1.40117 7.70608C0.961949 8.09162 0.609165 8.57104 0.367234 9.11115C0.125302 9.65126 0 10.2392 0 10.8342C0 11.4292 0.125302 12.0171 0.367234 12.5572C0.609165 13.0973 0.961949 13.5767 1.40117 13.9623L1.46751 14.0198C1.62744 14.1604 1.7527 14.3383 1.83297 14.5387C1.91324 14.7391 1.94623 14.9563 1.92921 15.1725L1.92258 15.2614C1.84294 16.2796 2.13387 17.2918 2.73857 18.1005C3.34328 18.9093 4.21836 19.4565 5.19301 19.6353V28.6308C5.19298 28.8787 5.25815 29.1219 5.38158 29.3345C5.505 29.5471 5.68206 29.7212 5.89384 29.8381C6.10563 29.955 6.34421 30.0104 6.58413 29.9984C6.82404 29.9864 7.05629 29.9074 7.2561 29.7698L10.5 27.5384L13.7439 29.7698C13.9437 29.9074 14.176 29.9864 14.4159 29.9984C14.6558 30.0104 14.8944 29.955 15.1062 29.8381C15.3179 29.7212 15.495 29.5471 15.6184 29.3345C15.7419 29.1219 15.807 28.8787 15.807 28.6308V19.6367C16.7819 19.4578 17.6572 18.9104 18.2619 18.1014C18.8666 17.2924 19.1574 16.2798 19.0774 15.2614L19.0708 15.1725C19.0538 14.9563 19.0868 14.7391 19.167 14.5387C19.2473 14.3383 19.3726 14.1604 19.5325 14.0198L19.5988 13.9623C20.0381 13.5767 20.3908 13.0973 20.6328 12.5572C20.8747 12.0171 21 11.4292 21 10.8342C21 10.2392 20.8747 9.65126 20.6328 9.11115C20.3908 8.57104 20.0381 8.09162 19.5988 7.70608L19.5325 7.64858C19.3726 7.50791 19.2473 7.33005 19.167 7.12965C19.0868 6.92925 19.0538 6.71203 19.0708 6.4959L19.0774 6.40692C19.1235 5.81406 19.0442 5.21795 18.845 4.65982C18.6458 4.10168 18.3316 3.59484 17.9239 3.17435C17.5163 2.75385 17.025 2.42973 16.484 2.22441C15.943 2.01908 15.3653 1.93744 14.7907 1.98514L14.7045 1.99061C14.495 2.00817 14.2845 1.97414 14.0903 1.89131C13.896 1.80848 13.7237 1.67924 13.5873 1.51421L13.5316 1.44576ZM7.84651 26.0736V20.6223C8.57625 21.2958 9.52095 21.6681 10.5 21.6681C11.479 21.6681 12.4238 21.2958 13.1535 20.6223V26.0708L11.2363 24.7525C11.0183 24.6024 10.7621 24.5223 10.5 24.5223C10.2379 24.5223 9.98168 24.6024 9.76365 24.7525L7.84651 26.0736ZM14.0915 10.4331C14.3332 10.1749 14.4669 9.82907 14.4639 9.47013C14.4609 9.11119 14.3213 8.76784 14.0753 8.51402C13.8294 8.2602 13.4966 8.11623 13.1487 8.11311C12.8008 8.10999 12.4657 8.24797 12.2155 8.49734L9.17325 11.6364L8.78452 11.2353C8.53429 10.9859 8.19915 10.8479 7.85128 10.8511C7.50341 10.8542 7.17065 10.9981 6.92466 11.252C6.67867 11.5058 6.53914 11.8491 6.53611 12.2081C6.53309 12.567 6.66682 12.9128 6.9085 13.171L8.23524 14.54C8.48404 14.7966 8.82145 14.9408 9.17325 14.9408C9.52506 14.9408 9.86246 14.7966 10.1113 14.54L14.0915 10.4331Z" fill="#0B0B0B"/>
</svg>
