<svg width="12" height="10" viewBox="0 0 12 10" fill="none" xmlns="http://www.w3.org/2000/svg">
<path d="M7.877 3.63636C8.36 3.63636 8.752 3.99273 8.752 4.43182V7.49955C8.752 8.16271 8.46222 8.79871 7.9464 9.26763C7.43058 9.73656 6.73098 10 6.0015 10C5.27202 10 4.57242 9.73656 4.0566 9.26763C3.54078 8.79871 3.251 8.16271 3.251 7.49955V4.43182C3.251 3.99273 3.6425 3.63636 4.126 3.63636H7.877ZM0.875 3.63636L3.066 3.63545C2.88582 3.83283 2.77735 4.0761 2.7555 4.33182L2.7505 4.43182V7.49955C2.7505 8.01455 2.896 8.49909 3.1505 8.92091C2.80797 9.0569 2.43356 9.11318 2.0611 9.08465C1.68865 9.05612 1.32988 8.94369 1.0172 8.75752C0.704523 8.57134 0.447792 8.31728 0.270198 8.01829C0.0926035 7.7193 -0.000258521 7.3848 5.40553e-07 7.045V4.43182C5.21786e-07 4.32732 0.0226497 4.22385 0.0666538 4.12731C0.110658 4.03077 0.175155 3.94306 0.256459 3.86919C0.337763 3.79532 0.434281 3.73673 0.540499 3.69678C0.646717 3.65684 0.760052 3.6363 0.875 3.63636ZM8.9375 3.63545L11.125 3.63636C11.608 3.63636 12 3.99273 12 4.43182V7.04545C12.0002 7.38507 11.9073 7.71938 11.7298 8.01821C11.5522 8.31704 11.2957 8.57099 10.9832 8.75713C10.6707 8.94327 10.3122 9.05576 9.93996 9.08443C9.56771 9.1131 9.19347 9.05706 8.851 8.92136L8.879 8.875C9.0935 8.50546 9.224 8.08909 9.248 7.64773L9.252 7.49955V4.43182C9.252 4.12909 9.134 3.85182 8.9375 3.63545ZM6 0C6.22981 -4.40268e-09 6.45738 0.04115 6.6697 0.121101C6.88202 0.201051 7.07493 0.318237 7.23744 0.465967C7.39994 0.613696 7.52884 0.789077 7.61679 0.982094C7.70473 1.17511 7.75 1.38199 7.75 1.59091C7.75 1.79983 7.70473 2.00671 7.61679 2.19972C7.52884 2.39274 7.39994 2.56812 7.23744 2.71585C7.07493 2.86358 6.88202 2.98077 6.6697 3.06072C6.45738 3.14067 6.22981 3.18182 6 3.18182C5.53587 3.18182 5.09075 3.0142 4.76256 2.71585C4.43437 2.4175 4.25 2.01284 4.25 1.59091C4.25 1.16897 4.43437 0.76432 4.76256 0.465967C5.09075 0.167613 5.53587 8.89162e-09 6 0ZM10.0015 0.454545C10.1985 0.454545 10.3935 0.489817 10.5755 0.558346C10.7575 0.626875 10.9229 0.72732 11.0622 0.853945C11.2014 0.980571 11.3119 1.1309 11.3873 1.29634C11.4627 1.46178 11.5015 1.63911 11.5015 1.81818C11.5015 1.99726 11.4627 2.17458 11.3873 2.34002C11.3119 2.50547 11.2014 2.65579 11.0622 2.78242C10.9229 2.90904 10.7575 3.00949 10.5755 3.07802C10.3935 3.14655 10.1985 3.18182 10.0015 3.18182C9.60368 3.18182 9.22215 3.03815 8.94084 2.78242C8.65954 2.52669 8.5015 2.17984 8.5015 1.81818C8.5015 1.45652 8.65954 1.10968 8.94084 0.853945C9.22215 0.598214 9.60368 0.454545 10.0015 0.454545ZM1.9985 0.454545C2.19548 0.454545 2.39054 0.489817 2.57253 0.558346C2.75451 0.626875 2.91987 0.72732 3.05916 0.853945C3.19845 0.980571 3.30894 1.1309 3.38432 1.29634C3.4597 1.46178 3.4985 1.63911 3.4985 1.81818C3.4985 1.99726 3.4597 2.17458 3.38432 2.34002C3.30894 2.50547 3.19845 2.65579 3.05916 2.78242C2.91987 2.90904 2.75451 3.00949 2.57253 3.07802C2.39054 3.14655 2.19548 3.18182 1.9985 3.18182C1.60068 3.18182 1.21914 3.03815 0.93784 2.78242C0.656536 2.52669 0.4985 2.17984 0.4985 1.81818C0.4985 1.45652 0.656536 1.10968 0.93784 0.853945C1.21914 0.598214 1.60068 0.454545 1.9985 0.454545Z" fill="black"/>
</svg>
