<svg width="55" height="56" viewBox="0 0 55 56" fill="none" xmlns="http://www.w3.org/2000/svg">
<path d="M35.7657 31.6983L41.262 27.7722C43.6302 26.0742 46.0028 24.3735 48.3797 22.6702C50.2312 21.3518 52.6118 21.6155 54.011 23.2661C55.4102 24.9167 55.3335 27.3055 53.7253 28.9165C48.2686 34.3903 42.7935 39.8457 37.358 45.3353C35.9539 46.7906 34.0294 47.6332 32.0045 47.6793C26.9631 47.9008 21.919 48.1645 16.875 48.4281C16.0815 48.4677 15.4864 48.8948 14.9891 49.4538C13.6825 50.9093 12.3943 52.3832 11.1089 53.8755C9.4187 55.8346 6.98793 55.5551 5.83206 53.248C4.02287 49.6357 2.21809 46.0217 0.417718 42.4059C-0.349336 40.8634 -0.0583848 39.5055 1.27735 38.4218C5.23781 35.1928 9.19916 31.9646 13.1614 28.7372C14.3499 27.7531 15.8484 27.2181 17.3934 27.2264C21.7524 27.2264 26.1096 27.2264 30.4651 27.2264C33.2212 27.2264 35.0251 28.6397 35.6652 31.3001C35.7075 31.395 35.7207 31.4952 35.7657 31.6983ZM13.1746 48.4281C15.0261 46.7116 15.5789 46.4822 17.7452 46.3768C22.6041 46.1395 27.4656 45.8837 32.3245 45.6543C33.6044 45.6138 34.818 45.0775 35.7075 44.1593C41.2373 38.6134 46.768 33.0693 52.2996 27.527C53.1751 26.6463 53.236 25.4176 52.4795 24.5423C51.723 23.6669 50.5196 23.5693 49.5012 24.297C44.9042 27.5912 40.3063 30.8888 35.7075 34.1899C35.285 34.5065 34.8951 34.8642 34.5437 35.2578C33.6735 36.1991 32.6155 36.8398 31.3459 36.8741C28.6268 36.9427 25.9051 36.9057 23.1833 36.8952C23.0546 36.9009 22.9261 36.8797 22.806 36.833C22.686 36.7863 22.577 36.7151 22.4861 36.624C22.3953 36.5329 22.3245 36.4239 22.2783 36.304C22.2321 36.1841 22.2115 36.0558 22.2179 35.9275C22.2179 35.3053 22.6173 34.9467 23.3526 34.9467C25.8072 34.9467 28.2618 34.9467 30.7163 34.9467C31.7373 34.9467 32.6128 34.6118 33.2132 33.7575C33.5332 33.3506 33.7271 32.8594 33.7713 32.3443C33.8155 31.8291 33.7079 31.3123 33.4619 30.8572C32.8773 29.7049 31.8749 29.1881 30.6132 29.1881C26.2348 29.1881 21.8573 29.1881 17.4807 29.1881C16.344 29.1769 15.2403 29.5695 14.3675 30.2955C13.0873 31.3502 11.8019 32.3864 10.519 33.4332L6.72078 36.5472C8.88705 40.5312 11.0269 44.4731 13.1746 48.4281ZM5.15494 37.826C4.27679 38.5405 3.45419 39.2049 2.63424 39.8747C1.86718 40.4996 1.81428 40.7632 2.26129 41.6571C4.03874 45.2149 5.81707 48.77 7.59628 52.3225C7.65248 52.4535 7.71789 52.5804 7.79201 52.7022C8.1729 53.277 8.85002 53.3957 9.30761 52.8947C10.1699 51.9771 10.9766 51.0042 11.8045 50.055L5.15494 37.826Z" fill="#E70F0E"/>
<path d="M32.4118 25.1488C31.6553 25.1488 30.8935 25.1989 30.1423 25.1488C29.4197 25.0901 28.7463 24.7608 28.2575 24.227C27.7687 23.6933 27.5008 22.9948 27.5079 22.2721C27.5079 21.6789 27.5079 21.0856 27.5079 20.495C27.5217 19.9358 27.4046 19.3811 27.1659 18.8749C26.9271 18.3687 26.5733 17.9249 26.1325 17.5788C25.0213 16.6968 24.1274 15.5729 23.5194 14.2931C22.9115 13.0134 22.6056 11.6119 22.6252 10.196C22.6252 6.19615 24.4265 3.1244 27.984 1.30244C31.5416 -0.519523 35.033 -0.060737 38.2176 2.22001C39.4222 3.08416 40.4122 4.21195 41.1117 5.51682C41.8111 6.8217 42.2013 8.26897 42.2524 9.74756C42.3035 11.2262 42.014 12.6968 41.4063 14.0465C40.7986 15.3962 39.8887 16.5893 38.7466 17.534C37.76 18.3593 37.2548 19.3322 37.3156 20.6163C37.3447 21.1858 37.3288 21.7606 37.3156 22.3328C37.3061 23.0332 37.0381 23.7055 36.5629 24.2215C36.0878 24.7375 35.4386 25.061 34.7394 25.1303C33.967 25.1936 33.1868 25.1303 32.4118 25.1303V25.1488ZM33.3904 18.8813C34.049 18.8813 34.6389 18.8813 35.2261 18.8813C35.2998 18.8717 35.3702 18.8446 35.4314 18.8024C35.4925 18.7602 35.5428 18.7041 35.5778 18.6387C35.9402 17.476 36.7655 16.677 37.6277 15.8702C39.7014 13.9296 40.6933 11.5724 40.1431 8.70629C39.4925 5.30758 36.3317 2.43885 33.0333 2.2121C31.3806 2.10685 29.7359 2.51716 28.3277 3.38607C26.9195 4.25499 25.8176 5.5394 25.175 7.06099C24.5399 8.60175 24.4126 10.3039 24.8115 11.9215C25.2104 13.5391 26.1148 14.9884 27.3942 16.06C28.2227 16.7025 28.8563 17.5613 29.2245 18.5412C29.2529 18.6184 29.299 18.688 29.3592 18.7443C29.4193 18.8006 29.4919 18.8421 29.571 18.8655C30.1767 18.8998 30.7824 18.8813 31.4225 18.8813C31.4225 17.5023 31.4437 16.1972 31.4067 14.8946C31.3888 14.5846 31.2657 14.2898 31.0575 14.0588C29.9995 12.9514 28.8939 11.8862 27.82 10.7919C27.7197 10.7031 27.639 10.5946 27.5828 10.4732C27.5266 10.3517 27.4961 10.22 27.4934 10.0863C27.4907 9.95265 27.5157 9.81984 27.5669 9.69624C27.6181 9.57264 27.6944 9.46092 27.7909 9.3681C28.1877 8.96996 28.7484 8.97787 29.2166 9.39447C29.37 9.53158 29.5075 9.68187 29.653 9.82689L32.4091 12.5875C33.4671 11.5328 34.4431 10.5388 35.4377 9.54476C35.9878 8.99369 36.5512 8.93041 36.9956 9.34965C37.4399 9.76888 37.4029 10.378 36.8316 10.9501C35.7947 12.0048 34.7447 13.0252 33.7184 14.0799C33.549 14.2381 33.4388 14.4493 33.4063 14.6784C33.3772 16.0521 33.3904 17.4206 33.3904 18.8813ZM35.3001 20.8799H29.4626C29.4626 21.3044 29.4626 21.6894 29.4626 22.0744C29.4864 22.8285 29.8408 23.1791 30.6079 23.187C31.5045 23.187 32.4012 23.158 33.2978 23.187C35.3768 23.2741 35.4139 22.9023 35.3398 20.9617C35.3424 20.9538 35.3266 20.9353 35.3001 20.8799Z" fill="#E70F0E"/>
</svg>
