<svg width="21" height="22" viewBox="0 0 21 22" fill="none" xmlns="http://www.w3.org/2000/svg">
<path d="M15.7502 2.30535C17.3339 3.21975 18.6513 4.53191 19.572 6.11192C20.4928 7.69193 20.9849 9.48501 20.9997 11.3137C21.0144 13.1423 20.5514 14.9431 19.6563 16.5378C18.7612 18.1325 17.4651 19.4657 15.8964 20.4056C14.3277 21.3454 12.5407 21.8593 10.7123 21.8963C8.88398 21.9333 7.07766 21.4922 5.4722 20.6166C3.86673 19.7409 2.5178 18.4612 1.55892 16.904C0.600043 15.3469 0.0644806 13.5663 0.00525018 11.7386L0 11.3984L0.00525018 11.0582C0.0640542 9.24479 0.591732 7.47761 1.53684 5.9289C2.48195 4.38018 3.81223 3.10278 5.398 2.22123C6.98377 1.33968 8.77091 0.884072 10.5852 0.898815C12.3995 0.913558 14.179 1.39815 15.7502 2.30535ZM10.5001 5.09835C10.2429 5.09839 9.99472 5.19281 9.80253 5.36371C9.61034 5.5346 9.48756 5.77009 9.45747 6.0255L9.45012 6.14835V11.3984L9.45957 11.5359C9.48351 11.7181 9.55483 11.8908 9.66642 12.0368L9.75777 12.1418L12.9078 15.2918L13.0065 15.3779C13.1907 15.5207 13.4171 15.5983 13.6502 15.5983C13.8832 15.5983 14.1097 15.5207 14.2938 15.3779L14.3925 15.2907L14.4797 15.192C14.6225 15.0079 14.7001 14.7814 14.7001 14.5484C14.7001 14.3153 14.6225 14.0888 14.4797 13.9047L14.3925 13.806L11.5501 10.9626V6.14835L11.5428 6.0255C11.5127 5.77009 11.3899 5.5346 11.1977 5.36371C11.0055 5.19281 10.7573 5.09839 10.5001 5.09835Z" fill="#0B0B0B"/>
</svg>
