<svg width="32" height="33" viewBox="0 0 32 33" fill="none" xmlns="http://www.w3.org/2000/svg">
<g clip-path="url(#clip0_52_648)">
<path d="M24.5 0.894287H7.5C3.35786 0.894287 0 4.25215 0 8.39429V25.3943C0 29.5364 3.35786 32.8943 7.5 32.8943H24.5C28.6421 32.8943 32 29.5364 32 25.3943V8.39429C32 4.25215 28.6421 0.894287 24.5 0.894287Z" fill="white"/>
<path d="M24.5 0.894287H7.5C3.35786 0.894287 0 4.25215 0 8.39429V25.3943C0 29.5364 3.35786 32.8943 7.5 32.8943H24.5C28.6421 32.8943 32 29.5364 32 25.3943V8.39429C32 4.25215 28.6421 0.894287 24.5 0.894287Z" fill="#0A66C2"/>
<path d="M23.0894 28.1049H26.7481C26.8807 28.1049 27.0079 28.0522 27.1016 27.9585C27.1954 27.8648 27.2481 27.7376 27.2481 27.605L27.25 19.8748C27.25 15.8344 26.3794 12.7288 21.6577 12.7288C19.8629 12.662 18.1702 13.5873 17.2569 15.1323C17.2524 15.1398 17.2456 15.1456 17.2375 15.1489C17.2294 15.1522 17.2205 15.1527 17.2121 15.1504C17.2036 15.1482 17.1962 15.1432 17.1908 15.1363C17.1855 15.1294 17.1826 15.1209 17.1825 15.1122V13.6018C17.1825 13.4692 17.1298 13.342 17.0361 13.2482C16.9423 13.1545 16.8151 13.1018 16.6825 13.1018H13.2104C13.0778 13.1018 12.9506 13.1545 12.8568 13.2482C12.7631 13.342 12.7104 13.4692 12.7104 13.6018V27.6043C12.7104 27.7369 12.7631 27.8641 12.8568 27.9578C12.9506 28.0516 13.0778 28.1043 13.2104 28.1043H16.8689C17.0015 28.1043 17.1287 28.0516 17.2224 27.9578C17.3162 27.8641 17.3689 27.7369 17.3689 27.6043V20.6827C17.3689 18.7255 17.7401 16.8302 20.1665 16.8302C22.5584 16.8302 22.5894 19.0697 22.5894 20.8094V27.6049C22.5894 27.7375 22.6421 27.8647 22.7358 27.9585C22.8296 28.0522 22.9568 28.1049 23.0894 28.1049ZM4.75 8.34779C4.75 9.83079 5.97088 11.051 7.454 11.051C8.93675 11.0509 10.1569 9.82991 10.1569 8.34716C10.1566 6.86441 8.93637 5.64429 7.4535 5.64429C5.97025 5.64429 4.75 6.86479 4.75 8.34779ZM5.61987 28.1049H9.28325C9.41586 28.1049 9.54304 28.0522 9.6368 27.9585C9.73057 27.8647 9.78325 27.7375 9.78325 27.6049V13.6018C9.78325 13.4692 9.73057 13.342 9.6368 13.2482C9.54304 13.1545 9.41586 13.1018 9.28325 13.1018H5.61987C5.48727 13.1018 5.36009 13.1545 5.26632 13.2482C5.17255 13.342 5.11987 13.4692 5.11987 13.6018V27.6049C5.11987 27.7375 5.17255 27.8647 5.26632 27.9585C5.36009 28.0522 5.48727 28.1049 5.61987 28.1049Z" fill="white"/>
</g>
<defs>
<clipPath id="clip0_52_648">
<rect width="32" height="32" fill="white" transform="translate(0 0.894287)"/>
</clipPath>
</defs>
</svg>
