<svg width="32" height="33" viewBox="0 0 32 33" fill="none" xmlns="http://www.w3.org/2000/svg">
<path d="M31.2938 9.40372C31.1103 8.7254 30.7522 8.107 30.2553 7.6101C29.7584 7.1132 29.1401 6.75513 28.4618 6.57155C25.9785 5.89429 15.984 5.89429 15.984 5.89429C15.984 5.89429 5.98913 5.91479 3.50583 6.59205C2.82751 6.77564 2.20912 7.13373 1.71223 7.63065C1.21535 8.12758 0.857316 8.74601 0.673785 9.42435C-0.0773523 13.8367 -0.368732 20.56 0.694411 24.7959C0.877961 25.4742 1.236 26.0926 1.73288 26.5895C2.22977 27.0864 2.84815 27.4444 3.52646 27.628C6.00975 28.3053 16.0044 28.3053 16.0044 28.3053C16.0044 28.3053 25.999 28.3053 28.4821 27.628C29.1605 27.4445 29.7789 27.0864 30.2758 26.5895C30.7727 26.0926 31.1307 25.4742 31.3143 24.7959C32.1066 20.3773 32.3507 13.658 31.2938 9.40372Z" fill="#FF0000"/>
<path d="M12.8028 21.9021L21.094 17.0998L12.8028 12.2975V21.9021Z" fill="white"/>
</svg>
