<svg width="32" height="33" viewBox="0 0 32 33" fill="none" xmlns="http://www.w3.org/2000/svg">
<path d="M24.5 0.894287H7.5C3.35786 0.894287 0 4.25215 0 8.39429V25.3943C0 29.5364 3.35786 32.8943 7.5 32.8943H24.5C28.6421 32.8943 32 29.5364 32 25.3943V8.39429C32 4.25215 28.6421 0.894287 24.5 0.894287Z" fill="url(#paint0_radial_52_644)"/>
<path d="M24.5 0.894287H7.5C3.35786 0.894287 0 4.25215 0 8.39429V25.3943C0 29.5364 3.35786 32.8943 7.5 32.8943H24.5C28.6421 32.8943 32 29.5364 32 25.3943V8.39429C32 4.25215 28.6421 0.894287 24.5 0.894287Z" fill="url(#paint1_radial_52_644)"/>
<path d="M16.0011 4.39429C12.6064 4.39429 12.1803 4.40916 10.847 4.46979C9.51625 4.53079 8.60787 4.74141 7.81313 5.05054C6.99088 5.36979 6.2935 5.79691 5.59875 6.49191C4.90338 7.18679 4.47625 7.88416 4.156 8.70604C3.846 9.50104 3.63512 10.4098 3.57525 11.7399C3.51562 13.0733 3.5 13.4995 3.5 16.8944C3.5 20.2893 3.515 20.714 3.5755 22.0473C3.63675 23.378 3.84738 24.2864 4.15625 25.0812C4.47575 25.9034 4.90288 26.6008 5.59788 27.2955C6.2925 27.9909 6.98988 28.419 7.8115 28.7383C8.60687 29.0474 9.51537 29.258 10.8459 29.319C12.1792 29.3797 12.605 29.3945 15.9996 29.3945C19.3948 29.3945 19.8195 29.3797 21.1528 29.319C22.4835 29.258 23.3929 29.0474 24.1882 28.7383C25.0101 28.419 25.7065 27.9909 26.401 27.2955C27.0964 26.6008 27.5234 25.9034 27.8438 25.0815C28.151 24.2864 28.362 23.3778 28.4245 22.0475C28.4844 20.7143 28.5 20.2893 28.5 16.8944C28.5 13.4995 28.4844 13.0735 28.4245 11.7402C28.362 10.4094 28.151 9.50116 27.8438 8.70641C27.5234 7.88416 27.0964 7.18679 26.401 6.49191C25.7057 5.79666 25.0104 5.36954 24.1875 5.05066C23.3906 4.74141 22.4817 4.53066 21.151 4.46979C19.8176 4.40916 19.3931 4.39429 15.9972 4.39429H16.0011ZM14.8798 6.64691C15.2126 6.64641 15.584 6.64691 16.0011 6.64691C19.3388 6.64691 19.7342 6.65891 21.0522 6.71879C22.271 6.77454 22.9325 6.97816 23.3731 7.14929C23.9565 7.37579 24.3724 7.64666 24.8096 8.08429C25.2471 8.52179 25.5179 8.93841 25.745 9.52179C25.9161 9.96179 26.12 10.6233 26.1755 11.842C26.2354 13.1598 26.2484 13.5555 26.2484 16.8915C26.2484 20.2275 26.2354 20.6234 26.1755 21.941C26.1198 23.1598 25.9161 23.8213 25.745 24.2614C25.5185 24.8448 25.2471 25.2602 24.8096 25.6974C24.3721 26.1349 23.9568 26.4057 23.3731 26.6323C22.933 26.8042 22.271 27.0073 21.0522 27.063C19.7345 27.1229 19.3388 27.1359 16.0011 27.1359C12.6634 27.1359 12.2677 27.1229 10.9501 27.063C9.73137 27.0068 9.06987 26.8032 8.62887 26.632C8.04562 26.4054 7.62887 26.1347 7.19137 25.6972C6.75387 25.2597 6.48312 24.844 6.256 24.2604C6.08488 23.8203 5.881 23.1588 5.8255 21.94C5.76562 20.6223 5.75362 20.2265 5.75362 16.8884C5.75362 13.5503 5.76562 13.1567 5.8255 11.8389C5.88125 10.6202 6.08488 9.95866 6.256 9.51804C6.48263 8.93466 6.75388 8.51804 7.1915 8.08054C7.62913 7.64304 8.04562 7.37216 8.629 7.14516C9.06962 6.97329 9.73137 6.77016 10.9501 6.71416C12.1032 6.66204 12.5501 6.64641 14.8798 6.64379V6.64691ZM22.6736 8.72241C21.8455 8.72241 21.1736 9.39366 21.1736 10.2219C21.1736 11.05 21.8455 11.7219 22.6736 11.7219C23.5018 11.7219 24.1736 11.05 24.1736 10.2219C24.1736 9.39379 23.5018 8.72191 22.6736 8.72191V8.72241ZM16.0011 10.475C12.4561 10.475 9.58187 13.3493 9.58187 16.8944C9.58187 20.4395 12.4561 23.3124 16.0011 23.3124C19.5462 23.3124 22.4195 20.4395 22.4195 16.8944C22.4195 13.3494 19.546 10.475 16.0009 10.475H16.0011ZM16.0011 12.7277C18.3022 12.7277 20.1679 14.593 20.1679 16.8944C20.1679 19.1955 18.3022 21.0612 16.0011 21.0612C13.7 21.0612 11.8345 19.1955 11.8345 16.8944C11.8345 14.593 13.6999 12.7277 16.0011 12.7277Z" fill="white"/>
<defs>
<radialGradient id="paint0_radial_52_644" cx="0" cy="0" r="1" gradientUnits="userSpaceOnUse" gradientTransform="translate(8.5 35.3589) rotate(-90) scale(31.7144 29.4969)">
<stop stop-color="#FFDD55"/>
<stop offset="0.1" stop-color="#FFDD55"/>
<stop offset="0.5" stop-color="#FF543E"/>
<stop offset="1" stop-color="#C837AB"/>
</radialGradient>
<radialGradient id="paint1_radial_52_644" cx="0" cy="0" r="1" gradientUnits="userSpaceOnUse" gradientTransform="translate(-5.36012 3.19941) rotate(78.681) scale(14.1765 58.436)">
<stop stop-color="#3771C8"/>
<stop offset="0.128" stop-color="#3771C8"/>
<stop offset="1" stop-color="#6600FF" stop-opacity="0"/>
</radialGradient>
</defs>
</svg>
