<svg width="47" height="47" viewBox="0 0 47 47" fill="none" xmlns="http://www.w3.org/2000/svg">
<path fill-rule="evenodd" clip-rule="evenodd" d="M20.3309 1.31084C21.1243 0.518495 22.1858 0.0522639 23.306 0.00413461C24.4262 -0.0439947 25.5238 0.329474 26.3822 1.05086L26.6691 1.31309L30.9274 5.56927H36.9474C38.0779 5.56948 39.1665 5.99684 39.9952 6.76575C40.824 7.53465 41.3316 8.58831 41.4164 9.71563L41.4298 10.0518V16.0719L45.6882 20.3303C46.4811 21.1238 46.9477 22.1858 46.9959 23.3066C47.044 24.4274 46.6702 25.5254 45.9481 26.384L45.6859 26.6687L41.4276 30.9271V36.9471C41.4279 38.078 41.0008 39.1673 40.2319 39.9965C39.463 40.8257 38.409 41.3337 37.2813 41.4185L36.9474 41.4297H30.9297L26.6713 45.6881C25.8779 46.4811 24.8159 46.9477 23.6951 46.9959C22.5744 47.044 21.4763 46.6701 20.6178 45.9481L20.3331 45.6881L16.0748 41.4297H10.0526C8.92176 41.4301 7.83254 41.0029 7.00333 40.234C6.17412 39.465 5.6662 38.411 5.58138 37.2833L5.57017 36.9471V30.9271L1.31184 26.6687C0.51888 25.8752 0.0522644 24.8132 0.00413147 23.6924C-0.0440015 22.5716 0.329848 21.4735 1.05186 20.615L1.31184 20.3303L5.57017 16.0719V10.0518C5.57038 8.92132 5.99774 7.83263 6.76662 7.00388C7.53551 6.17512 8.58915 5.66751 9.71645 5.58272L10.0526 5.56927H16.0726L20.3309 1.31084ZM30.4007 16.7376L20.889 26.2495L16.9265 22.287C16.5059 21.8667 15.9357 21.6307 15.3411 21.6309C14.7466 21.6311 14.1765 21.8675 13.7563 22.2881C13.336 22.7086 13.1 23.2789 13.1002 23.8735C13.1005 24.468 13.3368 25.0381 13.7574 25.4584L19.1453 30.8464C19.3742 31.0754 19.6461 31.2572 19.9453 31.3811C20.2444 31.5051 20.5651 31.5689 20.889 31.5689C21.2128 31.5689 21.5335 31.5051 21.8327 31.3811C22.1319 31.2572 22.4037 31.0754 22.6326 30.8464L33.5698 19.9067C33.9781 19.484 34.204 18.9179 34.1989 18.3302C34.1938 17.7425 33.9581 17.1804 33.5425 16.7649C33.127 16.3493 32.5649 16.1136 31.9772 16.1085C31.3896 16.1034 30.8234 16.3293 30.4007 16.7376Z" fill="#E70F0E"/>
</svg>
