<svg width="127" height="34" viewBox="0 0 127 34" fill="none" xmlns="http://www.w3.org/2000/svg">
<path d="M8.98948 20.7016V21.269H0V20.7016H0.74256C1.60879 20.7016 2.238 20.4503 2.63019 19.9478C2.87789 19.6212 3.00175 18.8341 3.00175 17.5865V4.15567C3.00175 3.10261 2.93457 2.40739 2.80022 2.07001C2.69701 1.81482 2.4857 1.59498 2.1663 1.4105C1.73087 1.17022 1.24093 1.04368 0.74256 1.04279H0V0.475342H8.98948V1.04279H8.229C7.37291 1.04279 6.74877 1.29403 6.35657 1.79651C6.09909 2.12385 5.97017 2.91113 5.96981 4.15837V17.5887C5.96981 18.6417 6.03699 19.337 6.17134 19.6743C6.27419 19.9302 6.49147 20.1499 6.82319 20.3333C7.2523 20.5751 7.73755 20.702 8.23117 20.7016H8.98948Z" fill="#707072"/>
<path d="M28.84 0L29.3196 7.0694H28.84C28.2008 4.95179 27.288 3.42855 26.1017 2.49968C24.9153 1.5708 23.4918 1.10564 21.831 1.10421C20.439 1.10421 19.1807 1.45433 18.0563 2.15458C16.9318 2.85482 16.0473 3.97159 15.4027 5.50489C14.7581 7.03925 14.4358 8.946 14.4358 11.2251C14.4358 13.1062 14.74 14.7368 15.3484 16.1168C15.9568 17.4968 16.8723 18.5556 18.0948 19.2932C19.3171 20.0293 20.7113 20.3972 22.2775 20.3969C23.6395 20.3969 24.8413 20.1081 25.8828 19.5306C26.9243 18.9531 28.0692 17.8057 29.3174 16.0883L29.7971 16.3946C28.7465 18.2423 27.5198 19.5969 26.1169 20.4583C24.714 21.3197 23.0481 21.7491 21.1194 21.7466C17.6429 21.7466 14.9508 20.4687 13.043 17.9128C11.6199 16.0106 10.9081 13.7718 10.9077 11.1966C10.9077 9.12097 11.377 7.21423 12.3157 5.47635C13.2544 3.73848 14.5463 2.39164 16.1915 1.43585C17.837 0.478615 19.6345 0 21.5838 0C23.1001 0 24.5957 0.368069 26.0707 1.10421C26.5053 1.32925 26.8147 1.44159 26.999 1.44123C27.1336 1.44255 27.2671 1.4175 27.3918 1.36752C27.5165 1.31753 27.6301 1.2436 27.7259 1.14997C27.9942 0.874321 28.1859 0.490998 28.3011 0H28.84Z" fill="#707072"/>
<path d="M37.5198 1.61024V9.82961H42.1306C43.3256 9.82961 44.125 9.65015 44.5288 9.29123C45.0651 8.82069 45.3642 7.99249 45.4262 6.80663H45.9987V14.0462H45.4262C45.2813 13.0347 45.1365 12.3856 44.9916 12.0989C44.8062 11.7399 44.502 11.4589 44.079 11.2558C43.656 11.0526 43.0062 10.9503 42.1295 10.9489H37.5198V17.8035C37.5198 18.7234 37.5611 19.2831 37.6437 19.4827C37.7296 19.6856 37.8829 19.8534 38.0782 19.9581C38.2839 20.0754 38.6758 20.1341 39.2537 20.1341H42.8123C43.9986 20.1341 44.86 20.0523 45.3963 19.8886C45.9326 19.7249 46.4483 19.403 46.9433 18.9228C47.5829 18.2889 48.238 17.3331 48.9086 16.0554H49.5274L47.7169 21.269H31.5479V20.7016H32.2904C32.782 20.7029 33.266 20.5823 33.6984 20.3505C33.854 20.2779 33.9936 20.1755 34.1091 20.0492C34.2246 19.9229 34.3138 19.7752 34.3714 19.6146C34.4891 19.2862 34.548 18.6162 34.548 17.6048V4.0943C34.548 2.77528 34.414 1.96251 34.146 1.656C33.7744 1.24719 33.1556 1.04279 32.2893 1.04279H31.5479V0.475342H47.7158L47.9483 5.02946H47.3448C47.1275 3.93584 46.8876 3.18445 46.625 2.77528C46.3625 2.36611 45.9732 2.0544 45.4571 1.84012C45.0443 1.68651 44.3171 1.60988 43.2756 1.61024H37.5198Z" fill="#707072"/>
<path d="M68.5878 0.475342L68.8198 5.35194H68.232C68.1187 4.49306 67.9639 3.87967 67.7676 3.51178C67.4482 2.91885 67.0227 2.48169 66.491 2.2003C65.9594 1.9189 65.2607 1.77767 64.3948 1.77659H61.4398V17.6651C61.4398 18.9432 61.579 19.7407 61.8575 20.0577C62.2493 20.4884 62.8527 20.7037 63.6675 20.7037H64.3948V21.2712H55.4982V20.7016H56.2413C57.1286 20.7016 57.7578 20.4358 58.129 19.9042C58.3557 19.5769 58.469 18.8305 58.469 17.6651V1.77659H55.9469C54.967 1.77659 54.2708 1.84838 53.8583 1.99194C53.322 2.18612 52.863 2.55921 52.4813 3.11123C52.0996 3.66324 51.8727 4.41015 51.8006 5.35194H51.2129L51.4601 0.475342H68.5878Z" fill="#707072"/>
<path d="M69.4834 8.56836H77.5511V9.26017H77.1545C76.5874 9.26017 76.1623 9.38184 75.8791 9.62519C75.7439 9.73518 75.6355 9.87396 75.5618 10.0312C75.4882 10.1884 75.4513 10.3601 75.4538 10.5334C75.4538 11.0201 75.6616 11.6943 76.0774 12.5561L80.291 21.2121L84.1646 11.7367C84.3718 11.257 84.481 10.7413 84.4856 10.2196C84.4856 9.99523 84.4416 9.82672 84.3536 9.71402C84.2526 9.57656 84.095 9.46745 83.881 9.38669C83.667 9.30593 83.2891 9.26376 82.7473 9.26017V8.56836H88.3793V9.26017C87.9132 9.3097 87.5542 9.40948 87.3021 9.55951C87.0501 9.70954 86.773 9.99039 86.471 10.4021C86.3577 10.5772 86.1435 11.058 85.8284 11.8444L78.7792 28.9647C78.0992 30.625 77.2081 31.8796 76.1061 32.7285C75.0042 33.5773 73.9427 34.0019 72.9219 34.0023C72.1788 34.0023 71.5678 33.79 71.0891 33.3654C70.6104 32.9408 70.371 32.4539 70.371 31.9048C70.371 31.3804 70.5443 30.959 70.8908 30.6407C71.2374 30.3223 71.7129 30.1631 72.3173 30.1631C72.733 30.1631 73.2999 30.3004 74.0181 30.575C74.5218 30.7623 74.8367 30.856 74.9627 30.856C75.3408 30.856 75.7532 30.6626 76.2001 30.2756C76.647 29.8887 77.0973 29.1395 77.5511 28.0279L78.7792 25.0507L72.5628 12.1082C72.3745 11.7213 72.0723 11.2405 71.6562 10.6659C71.3412 10.2291 71.083 9.93565 70.8816 9.78563C70.5919 9.58643 70.1258 9.41181 69.4834 9.26179V8.56836Z" fill="#707072"/>
<path d="M91.5155 18.9405C91.6946 18.9365 91.8726 18.9694 92.0382 19.0369C92.2039 19.1045 92.3536 19.2053 92.4781 19.333C92.6351 19.4894 92.7508 19.6817 92.8149 19.893C92.8791 20.1042 92.8897 20.3279 92.8459 20.5442C92.8021 20.7605 92.7052 20.9628 92.5638 21.1331C92.4224 21.3035 92.2407 21.4367 92.035 21.521C91.8293 21.6052 91.6058 21.6379 91.3843 21.6162C91.1627 21.5945 90.95 21.519 90.765 21.3964C90.5799 21.2738 90.4281 21.1079 90.3231 20.9134C90.2181 20.7189 90.1631 20.5017 90.1629 20.2811C90.1589 20.1036 90.192 19.9272 90.2602 19.763C90.3283 19.5988 90.4301 19.4504 90.5589 19.3271C90.6837 19.2019 90.8328 19.1031 90.9972 19.0366C91.1617 18.9702 91.338 18.9375 91.5155 18.9405Z" fill="#707072"/>
<path d="M100.873 9.89478C102.562 9.89478 103.919 10.5308 104.942 11.8028C105.812 12.8896 106.246 14.1375 106.246 15.5466C106.246 16.5372 106.006 17.5397 105.527 18.554C105.047 19.5683 104.387 20.3331 103.547 20.8486C102.703 21.3646 101.729 21.6327 100.738 21.6217C99.057 21.6217 97.7207 20.9577 96.7292 19.6297C95.9036 18.5447 95.4623 17.22 95.4739 15.861C95.4739 14.846 95.7273 13.8375 96.2343 12.8354C96.7413 11.8333 97.4097 11.0927 98.2393 10.6135C99.0357 10.1429 99.9456 9.89458 100.873 9.89478ZM100.493 10.6797C100.062 10.6797 99.6292 10.8066 99.1943 11.0604C98.7593 11.3141 98.4081 11.759 98.1404 12.395C97.8728 13.031 97.7388 13.8481 97.7385 14.8462C97.7385 16.457 98.0613 17.846 98.707 19.0132C99.3527 20.1804 100.204 20.764 101.26 20.764C102.048 20.764 102.698 20.4421 103.21 19.7982C103.722 19.1543 103.978 18.0472 103.977 16.4769C103.977 14.5122 103.551 12.9664 102.698 11.8394C102.124 11.0663 101.39 10.6797 100.496 10.6797H100.493Z" fill="#707072"/>
<path d="M111.158 9.89478V12.3826C112.093 10.7241 113.051 9.89478 114.034 9.89478C114.481 9.89478 114.85 10.0297 115.143 10.2996C115.436 10.5695 115.582 10.8814 115.582 11.2353C115.585 11.3822 115.56 11.5284 115.506 11.6653C115.452 11.8022 115.371 11.9271 115.268 12.0327C115.172 12.1363 115.055 12.2189 114.925 12.275C114.795 12.3311 114.654 12.3595 114.512 12.3584C114.227 12.3584 113.909 12.2195 113.555 11.9417C113.202 11.6639 112.94 11.525 112.769 11.525C112.624 11.525 112.466 11.6056 112.294 11.7667C111.928 12.0966 111.55 12.6401 111.161 13.3974V18.6988C111.161 19.3111 111.238 19.7741 111.392 20.0878C111.498 20.3053 111.685 20.4866 111.952 20.6316C112.22 20.7766 112.606 20.8484 113.11 20.8469V21.2819H107.391V20.8469C107.96 20.8469 108.383 20.7585 108.659 20.5815C108.862 20.453 109.004 20.2477 109.085 19.9656C109.126 19.8289 109.146 19.4384 109.146 18.7941V14.5081C109.146 13.2203 109.12 12.4535 109.067 12.2076C109.014 11.9618 108.917 11.7823 108.775 11.6693C108.623 11.5534 108.436 11.4936 108.245 11.5002C107.951 11.5092 107.662 11.571 107.391 11.6827L107.27 11.2477L110.645 9.89531L111.158 9.89478Z" fill="#707072"/>
<path d="M118.738 17.2496C118.056 16.9198 117.532 16.4589 117.166 15.8671C116.801 15.277 116.611 14.5969 116.618 13.9047C116.618 12.8096 117.034 11.8675 117.867 11.0782C118.7 10.289 119.766 9.89416 121.066 9.8938C122.13 9.8938 123.052 10.1515 123.832 10.6669H126.196C126.545 10.6669 126.748 10.677 126.806 10.6971C126.858 10.7138 126.902 10.7506 126.927 10.7993C126.976 10.8711 127.001 11 127.001 11.1859C127.001 11.3953 126.98 11.5407 126.939 11.6209C126.909 11.6662 126.864 11.7001 126.812 11.7173C126.751 11.7417 126.546 11.7539 126.196 11.7539H124.746C125.199 12.3339 125.426 13.0749 125.426 13.9768C125.426 15.0076 125.028 15.8893 124.231 16.6219C123.434 17.3544 122.366 17.7207 121.026 17.7207C120.453 17.7179 119.883 17.6367 119.332 17.4795C118.974 17.7853 118.733 18.0529 118.607 18.2822C118.481 18.5116 118.418 18.7068 118.418 18.868C118.418 19.0051 118.485 19.1381 118.619 19.2669C118.753 19.3958 119.015 19.4884 119.405 19.5447C119.633 19.577 120.202 19.6052 121.111 19.6292C122.784 19.6698 123.869 19.7261 124.365 19.7983C125.12 19.9027 125.723 20.1805 126.174 20.6317C126.625 21.0828 126.85 21.6383 126.85 22.298C126.85 23.2078 126.42 24.0613 125.558 24.8585C124.291 26.0339 122.638 26.6216 120.599 26.6216C119.031 26.6216 117.707 26.2715 116.627 25.5713C116.017 25.1686 115.713 24.7499 115.713 24.3152C115.714 24.1146 115.76 23.9167 115.847 23.7354C115.985 23.4372 116.269 23.0224 116.7 22.4912C116.756 22.4195 117.171 21.9846 117.943 21.1868C117.52 20.9377 117.222 20.7142 117.047 20.5165C116.878 20.3336 116.785 20.0946 116.785 19.8467C116.785 19.5646 116.901 19.2344 117.132 18.8561C117.364 18.4778 117.899 17.9423 118.738 17.2496ZM118.616 21.2837C118.235 21.6943 117.946 22.0767 117.751 22.4309C117.556 22.7852 117.458 23.1113 117.459 23.4092C117.459 23.7957 117.694 24.1338 118.165 24.4235C118.977 24.9231 120.151 25.1727 121.687 25.1723C123.149 25.1723 124.227 24.9168 124.922 24.4057C125.616 23.8946 125.964 23.349 125.964 22.769C125.964 22.3502 125.757 22.0523 125.342 21.8753C124.92 21.698 124.083 21.5934 122.832 21.5615C121.005 21.513 119.6 21.4204 118.616 21.2837ZM120.859 10.4747C120.257 10.4747 119.753 10.7121 119.347 11.187C118.942 11.6618 118.738 12.3906 118.738 13.3733C118.738 14.6453 119.014 15.6323 119.567 16.3344C119.989 16.8659 120.525 17.1315 121.175 17.1312C121.465 17.1376 121.752 17.0789 122.015 16.9597C122.279 16.8404 122.512 16.6637 122.696 16.4426C123.095 15.9839 123.294 15.2634 123.294 14.281C123.294 13.0008 123.014 11.9983 122.453 11.2737C122.04 10.741 121.508 10.4747 120.859 10.4747Z" fill="#707072"/>
</svg>
