<svg width="276" height="74" viewBox="0 0 276 74" fill="none" xmlns="http://www.w3.org/2000/svg">
<path d="M19.5361 44.9892V46.2224H0V44.9892H1.61375C3.49625 44.9892 4.86367 44.4432 5.71599 43.3512C6.2543 42.6414 6.52345 40.9308 6.52345 38.2195V9.03137C6.52345 6.74284 6.37746 5.23197 6.08548 4.49876C5.86119 3.94418 5.40198 3.46643 4.70784 3.06551C3.76156 2.54333 2.69681 2.26833 1.61375 2.26639H0V1.0332H19.5361V2.26639H17.8834C16.0229 2.26639 14.6666 2.81239 13.8142 3.9044C13.2547 4.61576 12.9745 6.3267 12.9737 9.03722V38.2242C12.9737 40.5128 13.1197 42.0236 13.4117 42.7568C13.6352 43.313 14.1074 43.7903 14.8283 44.1889C15.7608 44.7144 16.8154 44.9902 17.8881 44.9892H19.5361Z" fill="#FCFCFC"/>
<path d="M62.6752 0.000244141L63.7176 15.3636H62.6752C61.2861 10.7616 59.3025 7.45124 56.7243 5.43259C54.1461 3.41394 51.0524 2.40305 47.4432 2.39993C44.4179 2.39993 41.6835 3.16082 39.2399 4.68261C36.7962 6.2044 34.874 8.63139 33.4731 11.9636C32.0723 15.2981 31.3718 19.4419 31.3718 24.3949C31.3718 28.4829 32.0329 32.0265 33.3551 35.0256C34.6772 38.0247 36.6668 40.3257 39.3237 41.9286C41.9798 43.5284 45.0098 44.3279 48.4135 44.3271C51.3735 44.3271 53.9851 43.6996 56.2485 42.4446C58.5119 41.1896 61.0001 38.6959 63.7128 34.9636L64.7552 35.6293C62.4721 39.6448 59.8062 42.5885 56.7573 44.4605C53.7085 46.3325 50.0883 47.2658 45.8967 47.2603C38.3415 47.2603 32.4909 44.4831 28.345 38.9287C25.2521 34.7947 23.7053 29.9294 23.7045 24.3329C23.7045 19.8221 24.7244 15.6783 26.7643 11.9016C28.8042 8.12477 31.6119 5.19781 35.1872 3.12065C38.7633 1.04038 42.6696 0.000244141 46.906 0.000244141C50.2012 0.000244141 53.4515 0.800139 56.657 2.39993C57.6014 2.88899 58.2739 3.13313 58.6745 3.13235C58.9668 3.13523 59.2569 3.08079 59.528 2.97216C59.7991 2.86353 60.0458 2.70286 60.254 2.49938C60.8371 1.90034 61.2539 1.06729 61.5041 0.000244141H62.6752Z" fill="#FCFCFC"/>
<path d="M81.5382 3.49958V21.3621H91.5583C94.1554 21.3621 95.8927 20.9721 96.7703 20.1921C97.9358 19.1695 98.5859 17.3696 98.7204 14.7925H99.9647V30.5256H98.7204C98.4056 28.3275 98.0908 26.9169 97.776 26.2937C97.3731 25.5137 96.712 24.9029 95.7928 24.4614C94.8736 24.0199 93.4613 23.7976 91.556 23.7945H81.5382V38.6911C81.5382 40.6902 81.628 41.9066 81.8074 42.3403C81.994 42.7814 82.3273 43.146 82.7518 43.3734C83.1988 43.6285 84.0504 43.756 85.3064 43.756H93.0399C95.6181 43.756 97.49 43.5782 98.6555 43.2225C99.8211 42.8668 100.942 42.1671 102.018 41.1235C103.407 39.746 104.831 37.6689 106.289 34.892H107.633L103.699 46.2224H68.5598V44.9892H70.1736C71.2418 44.9922 72.2938 44.7299 73.2334 44.2264C73.5716 44.0686 73.875 43.846 74.126 43.5715C74.377 43.297 74.5708 42.976 74.6961 42.627C74.9518 41.9133 75.0797 40.4574 75.0797 38.2593V8.89799C75.0797 6.03147 74.7885 4.26515 74.2061 3.59903C73.3987 2.7106 72.0537 2.26639 70.1712 2.26639H68.5598V1.0332H103.696L104.202 10.9303H102.89C102.418 8.55362 101.896 6.92068 101.326 6.03147C100.755 5.14227 99.9092 4.46483 98.7877 3.99917C97.8906 3.66533 96.3103 3.4988 94.0468 3.49958H81.5382Z" fill="#FCFCFC"/>
<path d="M149.056 1.0332L149.56 11.6311H148.283C148.037 9.76458 147.7 8.43155 147.274 7.63204C146.579 6.34348 145.655 5.39343 144.499 4.78191C143.344 4.17038 141.826 3.86345 139.944 3.86111H133.522V38.3904C133.522 41.168 133.825 42.9011 134.43 43.5899C135.281 44.5259 136.592 44.9939 138.363 44.9939H139.944V46.2271H120.61V44.9892H122.225C124.153 44.9892 125.52 44.4116 126.327 43.2564C126.819 42.5451 127.066 40.923 127.066 38.3904V3.86111H121.585C119.455 3.86111 117.942 4.01711 117.046 4.32911C115.88 4.7511 114.883 5.56191 114.053 6.76156C113.224 7.96121 112.731 9.5844 112.574 11.6311H111.297L111.834 1.0332H149.056Z" fill="#FCFCFC"/>
<path d="M151.003 18.6208H168.535V20.1243H167.674C166.441 20.1243 165.517 20.3887 164.902 20.9176C164.608 21.1566 164.372 21.4582 164.212 21.7999C164.052 22.1416 163.972 22.5147 163.978 22.8914C163.978 23.9491 164.429 25.4143 165.333 27.2871L174.49 46.0985L182.908 25.5063C183.359 24.4639 183.596 23.3432 183.606 22.2093C183.606 21.7218 183.51 21.3555 183.319 21.1106C183.099 20.8119 182.757 20.5748 182.292 20.3993C181.827 20.2238 181.006 20.1321 179.828 20.1243V18.6208H192.068V20.1243C191.055 20.232 190.274 20.4488 189.727 20.7748C189.179 21.1009 188.577 21.7112 187.921 22.6059C187.674 22.9865 187.209 24.0314 186.524 25.7403L171.205 62.9466C169.727 66.5549 167.79 69.2814 165.395 71.1261C163.001 72.9708 160.694 73.8936 158.475 73.8943C156.86 73.8943 155.533 73.433 154.492 72.5102C153.452 71.5875 152.932 70.5294 152.932 69.336C152.932 68.1964 153.308 67.2807 154.061 66.5888C154.815 65.8969 155.848 65.551 157.161 65.551C158.065 65.551 159.297 65.8494 160.858 66.4461C161.952 66.8532 162.637 67.0568 162.91 67.0568C163.732 67.0568 164.628 66.6364 165.6 65.7955C166.571 64.9547 167.549 63.3264 168.535 60.9108L171.205 54.4406L157.695 26.3136C157.286 25.4728 156.629 24.428 155.725 23.1792C155.04 22.2299 154.479 21.5923 154.041 21.2662C153.412 20.8333 152.399 20.4539 151.003 20.1278V18.6208Z" fill="#FCFCFC"/>
<path d="M198.884 41.1623C199.273 41.1537 199.66 41.225 200.02 41.3718C200.38 41.5186 200.705 41.7377 200.976 42.0153C201.317 42.3551 201.568 42.7731 201.708 43.2322C201.847 43.6913 201.87 44.1774 201.775 44.6475C201.68 45.1176 201.469 45.5572 201.162 45.9274C200.855 46.2976 200.46 46.5871 200.013 46.7702C199.566 46.9533 199.08 47.0244 198.599 46.9772C198.117 46.9299 197.655 46.7659 197.253 46.4995C196.851 46.2331 196.521 45.8726 196.293 45.4498C196.064 45.0271 195.945 44.5551 195.944 44.0756C195.936 43.6899 196.008 43.3066 196.156 42.9498C196.304 42.5929 196.525 42.2704 196.805 42.0024C197.076 41.7303 197.4 41.5156 197.758 41.3712C198.115 41.2268 198.498 41.1557 198.884 41.1623Z" fill="#FCFCFC"/>
<path d="M219.219 21.5037C222.891 21.5037 225.839 22.8858 228.064 25.6502C229.952 28.012 230.897 30.7241 230.897 33.7864C230.897 35.9392 230.376 38.1178 229.334 40.3221C228.292 42.5264 226.858 44.1885 225.031 45.3086C223.198 46.4302 221.081 47.0128 218.927 46.9888C215.273 46.9888 212.369 45.5458 210.214 42.6597C208.42 40.3018 207.461 37.4229 207.486 34.4697C207.486 32.2638 208.037 30.072 209.139 27.8942C210.241 25.7165 211.693 24.1069 213.496 23.0656C215.227 22.043 217.204 21.5032 219.219 21.5037ZM218.393 23.2095C217.457 23.2095 216.517 23.4853 215.572 24.0367C214.626 24.5882 213.863 25.555 213.281 26.9372C212.7 28.3193 212.409 30.095 212.408 32.2642C212.408 35.7649 213.109 38.7835 214.513 41.3201C215.916 43.8567 217.765 45.1249 220.061 45.1249C221.773 45.1249 223.185 44.4253 224.298 43.0259C225.411 41.6266 225.967 39.2207 225.966 35.8082C225.966 31.5384 225.039 28.1789 223.186 25.7297C221.938 24.0496 220.343 23.2095 218.401 23.2095H218.393Z" fill="#FCFCFC"/>
<path d="M241.572 21.5037V26.9103C243.603 23.3059 245.686 21.5037 247.822 21.5037C248.792 21.5037 249.596 21.7969 250.232 22.3835C250.869 22.9701 251.186 23.6479 251.185 24.417C251.193 24.7362 251.137 25.0539 251.02 25.3514C250.902 25.6489 250.727 25.9203 250.503 26.1498C250.294 26.375 250.04 26.5544 249.757 26.6763C249.474 26.7982 249.169 26.86 248.86 26.8576C248.242 26.8576 247.549 26.5558 246.782 25.952C246.014 25.3483 245.444 25.0464 245.072 25.0464C244.757 25.0464 244.413 25.2216 244.039 25.5718C243.244 26.2886 242.424 27.4699 241.577 29.1157V40.6368C241.577 41.9675 241.744 42.9737 242.08 43.6554C242.309 44.1281 242.716 44.522 243.298 44.8371C243.88 45.1522 244.719 45.3082 245.814 45.3051V46.2505H233.385V45.3051C234.622 45.3051 235.54 45.1128 236.139 44.7283C236.581 44.4491 236.89 44.0029 237.067 43.3898C237.155 43.0926 237.199 42.244 237.199 40.8439V31.5295C237.199 28.7308 237.142 27.0643 237.027 26.53C236.912 25.9957 236.701 25.6057 236.392 25.36C236.063 25.1083 235.655 24.9784 235.24 24.9926C234.602 25.0121 233.974 25.1465 233.385 25.3893L233.121 24.4439L240.456 21.5048L241.572 21.5037Z" fill="#FCFCFC"/>
<path d="M258.043 37.4871C256.561 36.7703 255.422 35.7687 254.627 34.4825C253.834 33.2001 253.421 31.7221 253.436 30.2178C253.436 27.838 254.341 25.7905 256.151 24.0753C257.961 22.3601 260.278 21.5021 263.103 21.5013C265.416 21.5013 267.42 22.0613 269.114 23.1814H274.252C275.01 23.1814 275.452 23.2033 275.576 23.2469C275.691 23.2834 275.786 23.3633 275.841 23.4692C275.947 23.6252 276 23.9053 276 24.3093C276 24.7644 275.955 25.0803 275.867 25.2547C275.8 25.353 275.703 25.4267 275.589 25.4641C275.457 25.5171 275.011 25.5437 274.252 25.5437H271.1C272.085 26.8041 272.578 28.4145 272.578 30.3746C272.578 32.6148 271.712 34.5309 269.981 36.1229C268.249 37.7148 265.928 38.5108 263.016 38.5108C261.77 38.5048 260.531 38.3284 259.334 37.9867C258.557 38.6512 258.032 39.2327 257.759 39.7312C257.486 40.2296 257.349 40.6539 257.348 41.0041C257.348 41.3021 257.494 41.5911 257.785 41.8711C258.076 42.1511 258.645 42.3524 259.493 42.4748C259.988 42.545 261.224 42.6063 263.201 42.6585C266.837 42.7467 269.194 42.8691 270.271 43.0259C271.913 43.2529 273.223 43.8566 274.203 44.8371C275.183 45.8175 275.673 47.0246 275.673 48.4582C275.673 50.4356 274.737 52.2904 272.866 54.0228C270.111 56.5773 266.519 57.8546 262.088 57.8546C258.681 57.8546 255.803 57.0937 253.455 55.5719C252.131 54.6967 251.469 53.7868 251.469 52.8423C251.473 52.4062 251.572 51.9761 251.761 51.5822C252.061 50.934 252.678 50.0327 253.614 48.8783C253.737 48.7223 254.637 47.7773 256.315 46.0433C255.397 45.502 254.748 45.0165 254.368 44.5867C254.001 44.1893 253.798 43.6699 253.799 43.1312C253.799 42.5181 254.051 41.8005 254.554 40.9784C255.057 40.1563 256.22 38.9925 258.043 37.4871ZM257.779 46.2539C256.949 47.1463 256.323 47.9774 255.898 48.7472C255.474 49.5171 255.263 50.2257 255.263 50.8731C255.263 51.7132 255.775 52.448 256.798 53.0774C258.562 54.1632 261.113 54.7057 264.451 54.7049C267.629 54.7049 269.973 54.1495 271.482 53.0388C272.992 51.9281 273.746 50.7425 273.746 49.482C273.746 48.5717 273.296 47.9243 272.396 47.5398C271.477 47.1545 269.659 46.9271 266.941 46.8577C262.97 46.7524 259.916 46.5511 257.779 46.2539ZM262.652 22.7637C261.345 22.7637 260.25 23.2797 259.368 24.3116C258.486 25.3436 258.044 26.9274 258.043 29.063C258.043 31.8274 258.644 33.9724 259.845 35.4981C260.762 36.6533 261.928 37.2305 263.34 37.2297C263.969 37.2436 264.594 37.1162 265.166 36.857C265.739 36.5979 266.244 36.2137 266.646 35.7332C267.511 34.7364 267.944 33.1705 267.944 31.0357C267.944 28.2534 267.335 26.0748 266.117 24.5C265.219 23.3425 264.064 22.7637 262.652 22.7637Z" fill="#FCFCFC"/>
</svg>
