<svg width="18" height="15" viewBox="0 0 18 15" fill="none" xmlns="http://www.w3.org/2000/svg">
<path d="M16.417 1.856C17.447 2.95 18 4.177 18 6.166C18 9.666 15.544 12.803 11.97 14.354L11.077 12.976C14.412 11.172 15.064 8.831 15.325 7.355C14.788 7.633 14.085 7.73 13.395 7.666C11.591 7.499 10.169 6.018 10.169 4.177C10.169 3.24874 10.5378 2.35851 11.1941 1.70213C11.8505 1.04575 12.7408 0.677002 13.669 0.677002C14.742 0.677002 15.769 1.167 16.417 1.856ZM6.41701 1.856C7.44701 2.95 8.00001 4.177 8.00001 6.166C8.00001 9.666 5.54401 12.803 1.97001 14.354L1.07701 12.976C4.41201 11.172 5.06401 8.831 5.32401 7.355C4.78701 7.633 4.08401 7.73 3.39501 7.666C1.59101 7.5 0.170013 6.019 0.170013 4.177C0.170013 3.24874 0.538762 2.35851 1.19514 1.70213C1.85152 1.04575 2.74176 0.677002 3.67001 0.677002C4.74301 0.677002 5.77001 1.167 6.41801 1.856" fill="#AD0B0B"/>
</svg>
