<svg xmlns="http://www.w3.org/2000/svg" width="55" height="56" viewBox="0 0 55 56" fill="none">
<path d="M15.8024 55.1797C15.1672 54.7816 14.9747 54.2358 14.9833 53.5345C15.0206 51.0641 14.9833 48.5963 14.9833 46.0363H14.3653C11.769 46.0363 9.17463 46.0363 6.58215 46.0363C2.72505 46.0363 0.000359268 43.5053 0.00323341 39.9724C-0.00251488 28.6969 -0.000598781 17.4215 0.0089817 6.14608C0.0089817 3.30394 1.8743 1.03391 4.75994 0.366879C5.27018 0.255007 5.79312 0.199248 6.31773 0.200779C11.2038 0.179688 16.0898 0.213962 20.9529 0.179688C22.0422 0.179688 22.5135 0.786082 22.502 1.34766C22.502 2.07797 21.9272 2.48926 20.9328 2.4919C16.1713 2.4919 11.4098 2.4919 6.64826 2.4919C5.30028 2.4919 4.15637 2.84519 3.31137 3.84706C2.82846 4.39432 2.562 5.07556 2.55547 5.77961C2.55547 15.6401 2.55547 25.5015 2.55547 35.3638C2.55163 35.4059 2.55163 35.4482 2.55547 35.4903C3.4637 35.2056 4.36044 34.8892 5.28016 34.6519C5.71971 34.5703 6.16917 34.5428 6.61664 34.5702C18.3221 34.5702 30.0285 34.5702 41.7358 34.5702H42.4831V31.7887C42.4831 30.8211 42.4831 29.8561 42.4831 28.8885C42.4726 28.7367 42.4957 28.5844 42.551 28.4409C42.6063 28.2975 42.6926 28.1657 42.8049 28.0537C42.9171 27.9416 43.0529 27.8515 43.204 27.7888C43.3552 27.7262 43.5186 27.6922 43.6845 27.6889C44.403 27.6705 44.9031 28.1055 44.9721 28.8121C44.9865 28.9729 44.9721 29.1337 44.9721 29.2945C44.9721 34.3215 44.9721 39.3501 44.9721 44.3806C44.9721 45.6988 44.5956 46.0337 43.17 46.0363H30.0093V46.706C30.0093 49.0129 29.9949 51.3225 30.0093 53.6321C30.0093 54.3176 29.8254 54.8528 29.1298 55.1797H28.3222L22.502 50.9376L16.7308 55.1797H15.8024ZM42.4745 36.8824C42.2445 36.8824 42.0692 36.8613 41.8996 36.8613C30.1386 36.8613 18.3776 36.8613 6.61664 36.8613C6.18836 36.8525 5.76057 36.8932 5.34339 36.9826C4.46587 37.1876 3.70014 37.6795 3.19004 38.3658C2.67995 39.0521 2.46059 39.8857 2.57316 40.7099C2.68574 41.5341 3.12251 42.2923 3.80144 42.842C4.48036 43.3916 5.35471 43.695 6.26025 43.6951C9.03092 43.7083 11.7987 43.6951 14.5694 43.6951C14.6987 43.6951 14.8281 43.6714 14.9603 43.6608V41.4251C13.7129 41.4251 12.5058 41.4251 11.3015 41.4251C11.1256 41.4324 10.95 41.4044 10.787 41.3432C10.624 41.2819 10.4776 41.1888 10.3578 41.0704C10.238 40.952 10.1477 40.811 10.0933 40.6574C10.0389 40.5037 10.0216 40.3411 10.0426 40.1806C10.1001 39.5268 10.6174 39.1419 11.4797 39.126C13.4312 39.126 15.3799 39.126 17.3286 39.126C22.6342 39.126 27.939 39.126 33.2427 39.126C33.5734 39.1119 33.9045 39.1421 34.2257 39.2157C34.4949 39.3129 34.7187 39.4933 34.8584 39.7257C34.9981 39.9582 35.0449 40.2281 34.9907 40.4889C34.9365 40.7496 34.7848 40.9848 34.5616 41.1538C34.3385 41.3228 34.058 41.415 33.7687 41.4145C32.5443 41.4277 31.3199 41.4145 30.061 41.4145V43.6503H42.4831L42.4745 36.8824ZM17.5729 41.4514V51.565C17.7568 51.4438 17.8833 51.3699 17.9983 51.2856C19.1843 50.4067 20.3713 49.5341 21.5593 48.6675C22.252 48.1613 22.7492 48.164 23.4562 48.6675C23.7437 48.8626 24.0023 49.0709 24.2754 49.2713L27.4686 51.6151V41.4514H17.5729Z" fill="#ffffff"/>
<path d="M24.9997 14.4616C24.9997 13.4782 24.9824 12.4921 24.9997 11.5087C25.0191 11.3696 24.9842 11.2286 24.9011 11.1108C24.8179 10.993 24.6919 10.9061 24.5455 10.8654C23.37 10.3882 22.2117 9.87937 21.0391 9.39426C20.4643 9.15961 20.0159 8.86696 20.0101 8.22629C20.0044 7.58562 20.4413 7.29824 21.0132 7.03459C26.2499 4.83223 31.4818 2.61933 36.7089 0.395887C36.9511 0.282895 37.219 0.223999 37.4907 0.223999C37.7624 0.223999 38.0303 0.282895 38.2725 0.395887C43.5149 2.61933 48.7669 4.83927 54.0285 7.05568C54.6033 7.29033 54.9971 7.62253 55 8.20783C55.0028 8.79314 54.5775 9.14379 54.0285 9.36789C52.8789 9.84246 51.7292 10.3619 50.5795 10.8101C50.3806 10.863 50.2098 10.9812 50.0996 11.142C49.9894 11.3029 49.9474 11.4953 49.9817 11.6827C50.0133 13.5072 49.9817 15.3343 49.9817 17.1587C50.0049 17.7977 49.8328 18.4299 49.4849 18.9838C49.137 19.5378 48.6272 19.9915 48.0129 20.2935C44.3484 22.2656 40.4338 23.3519 36.1456 23.0592C32.7119 22.8038 29.404 21.7573 26.5287 20.0167C26.08 19.7556 25.709 19.3962 25.4491 18.971C25.1893 18.5458 25.0486 18.068 25.0399 17.5806C24.9968 16.5444 25.0399 15.5057 25.0399 14.4669L24.9997 14.4616ZM24.307 8.19465C24.5111 8.29484 24.6548 8.3792 24.81 8.4583C28.9085 10.1905 33.0013 11.9279 37.1084 13.639C37.3879 13.7349 37.6971 13.7273 37.9707 13.6179C41.9542 11.9517 45.9301 10.2731 49.8984 8.58222C50.1484 8.47412 50.3927 8.35548 50.7089 8.21047C46.343 6.36492 42.0864 4.55101 37.7925 2.75819C37.5801 2.69498 37.3497 2.70626 37.1458 2.78983C36.1111 3.20376 35.0908 3.64669 34.0676 4.07908L24.307 8.19465ZM27.5088 12.1494C27.5088 13.9264 27.4772 15.6217 27.5347 17.3169C27.5605 17.4978 27.6269 17.6718 27.7298 17.828C27.8327 17.9841 27.9698 18.1189 28.1325 18.2239C30.9549 19.8058 33.9929 20.7918 37.3297 20.8235C40.6666 20.8551 43.6816 19.8954 46.5557 18.4137C46.8552 18.2851 47.1049 18.0761 47.2717 17.8142C47.4385 17.5524 47.5146 17.2502 47.4898 16.9478C47.4668 15.5162 47.4898 14.0872 47.4898 12.6556C47.4816 12.4915 47.4643 12.3278 47.4381 12.1652C47.1306 12.2918 46.9006 12.384 46.6707 12.4816C43.8799 13.6522 41.0949 14.8123 38.3386 15.9987C38.0707 16.1229 37.7743 16.1863 37.4742 16.1836C37.1741 16.1808 36.8791 16.112 36.6141 15.9829C34.3607 15.0074 32.0959 14.0582 29.8368 13.1012C29.0809 12.7874 28.325 12.4763 27.5088 12.1362V12.1494Z" fill="#ffffff"/>
</svg>