<svg xmlns="http://www.w3.org/2000/svg" width="55" height="56" viewBox="0 0 55 56" fill="none">
<path d="M54.9903 35.9691C54.6809 37.2159 54.1902 38.3414 53.2088 39.1322C52.4292 39.8014 51.4669 40.1669 50.4748 40.1708C38.2128 40.1708 25.9509 40.1708 13.6889 40.1708C11.1556 40.1708 9.15168 37.9329 9.13959 35.0914C9.12509 30.9741 9.13959 26.8541 9.13959 22.7342C9.13959 16.9352 9.13959 11.1361 9.13959 5.33712C9.13959 2.82773 10.59 0.827064 12.7824 0.299881C13.2607 0.204936 13.7469 0.166055 14.2328 0.1839C26.1209 0.1839 38.0074 0.1839 49.8923 0.1839C52.6455 0.1839 54.137 1.39115 54.9274 4.25112C54.9274 4.28275 54.9758 4.30648 54.9999 4.33283L54.9903 35.9691ZM52.6673 28.0007C52.6794 27.7134 52.689 27.6001 52.689 27.4736C52.689 20.1352 52.689 12.7959 52.689 5.45574C52.689 3.67649 51.7511 2.68802 50.1026 2.68802C38.092 2.68802 26.0806 2.68275 14.0684 2.67221C12.635 2.67221 11.4408 3.70549 11.4505 5.54799C11.4964 14.5655 11.4723 23.5829 11.4723 32.6031V33.3332C11.7019 33.0986 11.8445 32.9615 11.9799 32.806C14.7259 29.8116 17.4647 26.8067 20.23 23.8439C20.6365 23.3801 21.1261 23.0123 21.6683 22.7632C23.0606 22.1885 24.3442 22.4996 25.4175 23.6488C26.4907 24.7981 27.4842 25.9052 28.5381 27.0571C28.6977 26.8673 28.8234 26.7302 28.9346 26.5826C31.7064 22.9556 34.479 19.3286 37.2524 15.7015C37.5078 15.35 37.8026 15.0348 38.1299 14.7632C39.602 13.6007 41.5261 13.859 42.7638 15.4116C44.8885 18.0765 46.9843 20.7704 49.0946 23.4511L52.6673 28.0007ZM11.8445 36.5385C12.4222 37.44 13.1837 37.6825 14.0732 37.6798C20.392 37.6798 26.7099 37.6798 33.027 37.6798C38.7189 37.6798 44.4107 37.6798 50.1026 37.6798C51.7947 37.6798 52.6866 36.7151 52.6987 34.8752C52.6987 34.0844 52.7326 33.2726 52.6842 32.4739C52.6639 32.1167 52.5461 31.7742 52.3458 31.4907C48.6393 26.7355 44.9183 21.9908 41.1829 17.2567C40.477 16.3588 39.7768 16.3588 39.0823 17.2567C35.9898 21.2985 32.8965 25.3455 29.8024 29.3978C28.9902 30.4521 28.4294 30.4811 27.5447 29.519C26.3376 28.2099 25.133 26.8989 23.9308 25.5862C23.2177 24.8113 22.611 24.7955 21.9028 25.5862L15.3761 32.7032C14.2062 33.9658 13.0386 35.2284 11.8445 36.5385Z" fill="#ffffff"/>
<path d="M39.1983 55.1797C37.5352 54.6762 35.8746 54.1596 34.2067 53.6719C23.9816 50.6863 13.7566 47.7086 3.53156 44.7388C0.899163 43.948 -0.524606 41.2515 0.178818 38.3783C1.62918 32.4756 3.07954 26.5729 4.5299 20.6702C4.73778 19.8294 5.09312 19.4656 5.70469 19.4551C6.52656 19.4393 7.03418 20.2063 6.80454 21.1526C6.2389 23.4854 5.66117 25.8155 5.08828 28.1457C4.20195 31.7569 3.31562 35.3672 2.42929 38.9767C2.03528 40.5899 2.70728 41.8762 4.17214 42.2979L39.2225 52.5253C40.6898 52.9523 41.8186 52.2617 42.2175 50.6564C42.7976 48.3474 43.3608 46.033 43.9386 43.724C44.1102 43.0465 44.5864 42.638 45.1279 42.6696C45.3989 42.6835 45.6568 42.8015 45.8558 43.0026C46.0548 43.2037 46.1823 43.4751 46.2156 43.7688C46.2303 44.0361 46.2 44.3041 46.1262 44.5596C45.5871 46.7579 45.0215 48.951 44.497 51.1493C44.0135 53.2264 42.8508 54.5576 40.9218 55.0637C40.8783 55.0637 40.8445 55.1322 40.8058 55.1691L39.1983 55.1797Z" fill="#ffffff"/>
<path d="M20.6216 7.69885C21.5311 7.70203 22.4194 7.99965 23.1737 8.55399C23.9279 9.10833 24.5143 9.89442 24.8584 10.8126C25.2024 11.7308 25.2888 12.7397 25.1064 13.7114C24.9239 14.6831 24.481 15.5739 23.8338 16.2708C23.1866 16.9677 22.3641 17.4393 21.4708 17.6259C20.5774 17.8125 19.6534 17.7056 18.8158 17.3188C17.9782 16.932 17.2648 16.2827 16.766 15.4532C16.2673 14.6238 16.0056 13.6515 16.0142 12.6597C16.0289 11.338 16.5208 10.0759 17.3833 9.14717C18.2459 8.21847 19.4094 7.69806 20.6216 7.69885ZM22.8841 12.7387C22.8981 12.4093 22.8515 12.0802 22.7472 11.7706C22.6428 11.4611 22.4828 11.1775 22.2766 10.9363C22.0703 10.6952 21.8219 10.5014 21.546 10.3664C21.2701 10.2314 20.9722 10.1578 20.6699 10.1501C20.3676 10.1424 20.0669 10.2006 19.7855 10.3214C19.5041 10.4421 19.2476 10.623 19.0312 10.8533C18.8148 11.0837 18.6428 11.3589 18.5253 11.6627C18.4078 11.9666 18.3471 12.293 18.3469 12.6227C18.333 12.9522 18.3795 13.2813 18.4838 13.5908C18.5882 13.9003 18.7482 14.184 18.9544 14.4252C19.1607 14.6663 19.4091 14.8601 19.685 14.9951C19.9609 15.1301 20.2588 15.2037 20.5611 15.2114C20.8634 15.2191 21.1641 15.1609 21.4455 15.0401C21.7269 14.9193 21.9834 14.7385 22.1998 14.5081C22.4162 14.2778 22.5882 14.0026 22.7057 13.6987C22.8232 13.3949 22.8839 13.0685 22.8841 12.7387Z" fill="#ffffff"/>
</svg>