<svg xmlns="http://www.w3.org/2000/svg" xmlns:xlink="http://www.w3.org/1999/xlink" xmlns:inkscape="http://www.inkscape.org/namespaces/inkscape" version="1.1" width="800" height="800" viewBox="0 0 800 800">
<defs>
<clipPath id="clip_0">
<path transform="matrix(1,0,0,-1,0,800)" d="M0 800H800V0H0Z"/>
</clipPath>
</defs>
<g inkscape:groupmode="layer" inkscape:label="Layer 1">
<g clip-path="url(#clip_0)">
<path transform="matrix(1,0,0,-1,400.0002,799.8755)" d="M0 0C-53.983 0-106.351 10.572-155.649 31.424-203.266 51.564-246.03 80.397-282.754 117.121-319.478 153.845-348.311 196.609-368.451 244.226-389.302 293.524-399.875 345.893-399.875 399.875-399.875 453.858-389.302 506.227-368.451 555.524-348.311 603.142-319.478 645.906-282.754 682.63-246.031 719.354-203.266 748.186-155.649 768.326-106.351 789.178-53.983 799.75 0 799.75 53.982 799.75 106.351 789.178 155.649 768.326 203.267 748.186 246.03 719.354 282.755 682.63 319.479 645.906 348.311 603.142 368.451 555.524 389.303 506.227 399.875 453.858 399.875 399.875 399.875 345.893 389.303 293.524 368.451 244.226 348.311 196.609 319.479 153.845 282.755 117.121 246.03 80.397 203.267 51.564 155.649 31.424 106.351 10.572 53.982 0 0 0" fill="#ffffff"/>
<path transform="matrix(1,0,0,-1,400,0)" d="M0 0C-220.914 0-400-179.086-400-400-400-620.914-220.914-800 0-800 220.914-800 400-620.914 400-400 400-179.086 220.914 0 0 0M0-.25C53.966-.25 106.318-10.819 155.601-31.664 203.203-51.798 245.953-80.622 282.666-117.334 319.378-154.047 348.202-196.797 368.336-244.399 389.181-293.682 399.75-346.034 399.75-400 399.75-453.966 389.181-506.318 368.336-555.601 348.202-603.203 319.378-645.953 282.666-682.666 245.953-719.378 203.203-748.202 155.601-768.336 106.318-789.181 53.966-799.75 0-799.75-53.966-799.75-106.318-789.181-155.601-768.336-203.203-748.202-245.953-719.378-282.666-682.666-319.378-645.953-348.202-603.203-368.336-555.601-389.181-506.318-399.75-453.966-399.75-400-399.75-346.034-389.181-293.682-368.336-244.399-348.202-196.797-319.378-154.047-282.666-117.334-245.953-80.622-203.203-51.798-155.601-31.664-106.318-10.819-53.966-.25 0-.25"/>
<path transform="matrix(1,0,0,-1,482.743,582.5757)" d="M0 0V-10.539H-165.486V0H-151.814C-135.864 0-124.284 4.651-117.065 13.956-112.507 20.031-110.229 34.652-110.229 57.82V307.331C-110.229 326.886-111.466 339.802-113.932 346.068-115.832 350.812-119.726 354.898-125.61 358.316-133.968 362.873-142.7 365.151-151.814 365.151H-165.486V375.69H0V365.151H-13.957C-29.72 365.151-41.207 360.496-48.421 351.195-53.17 345.116-55.542 330.496-55.542 307.331V57.82C-55.542 38.261-54.309 25.35-51.839 19.084-49.943 14.335-45.956 10.254-39.876 6.836-31.714 2.279-23.071 0-13.957 0Z"/>
</g>
</g>
</svg>
